Coordinates
version=1
nRows=27
nColumns=12
inDegrees=yes

Units are S.I. units (second, meters, Newtons, ...)
Angles are in degrees

endheader
time	SC_y	SC_z	SC_x	AC_y	AC_z	AC_x	GH_y	GH_z	GH_yy	EL_x	PS_y
       0.0              -52.34          17.15           5.26          66.58          9.581          3.466          151.8         -7.295          55.01          42.79          134.8
  0.006592              -52.34          17.15           5.26          66.57          9.577          3.463          151.8         -7.296          55.03           42.8          134.8
   0.01318              -52.33          17.15           5.26          66.56          9.572           3.46          151.8         -7.297          55.05           42.8          134.8
   0.01978              -52.33          17.15          5.259          66.56          9.567          3.456          151.7         -7.298          55.07          42.81          134.8
   0.02637              -52.33          17.15          5.259          66.55          9.563          3.453          151.7         -7.298          55.09          42.81          134.7
   0.03296              -52.33          17.15          5.259          66.55          9.557          3.449          151.7         -7.299          55.11          42.82          134.7
   0.03955              -52.32          17.15          5.259          66.54          9.552          3.445          151.7           -7.3          55.13          42.83          134.7
   0.04614              -52.32          17.14          5.258          66.53          9.546           3.44          151.7         -7.301          55.16          42.83          134.7
   0.05274              -52.32          17.14          5.258          66.52          9.539          3.435          151.6         -7.302          55.19          42.84          134.6
   0.05933              -52.31          17.14          5.258          66.51          9.532           3.43          151.6         -7.303          55.22          42.85          134.6
   0.06592              -52.31          17.14          5.257          66.51          9.525          3.425          151.6         -7.304          55.25          42.86          134.6
   0.07251               -52.3          17.14          5.257           66.5          9.517          3.419          151.5         -7.306          55.29          42.87          134.5
    0.0791               -52.3          17.14          5.256          66.48          9.508          3.413          151.5         -7.307          55.32          42.88          134.5
    0.0857               -52.3          17.14          5.256          66.47          9.499          3.406          151.5         -7.309          55.36          42.89          134.5
   0.09229              -52.29          17.13          5.256          66.46          9.489          3.398          151.4          -7.31          55.41           42.9          134.4
   0.09888              -52.28          17.13          5.255          66.45          9.478           3.39          151.4         -7.312          55.46          42.91          134.4
    0.1055              -52.28          17.13          5.254          66.43          9.466          3.382          151.4         -7.314          55.51          42.93          134.3
    0.1121              -52.27          17.13          5.254          66.42          9.453          3.372          151.3         -7.316          55.56          42.94          134.3
    0.1187              -52.26          17.13          5.253           66.4          9.439          3.362          151.3         -7.318          55.63          42.96          134.2
    0.1252              -52.26          17.12          5.252          66.38          9.424           3.35          151.2         -7.321          55.69          42.98          134.1
    0.1318              -52.25          17.12          5.252          66.36          9.407          3.338          151.1         -7.323          55.77           43.0          134.1
    0.1384              -52.24          17.12          5.251          66.33          9.388          3.324          151.1         -7.326          55.85          43.02          134.0
     0.145              -52.23          17.11           5.25          66.31          9.367          3.309          151.0          -7.33          55.94          43.04          133.9
    0.1516              -52.22          17.11          5.249          66.28          9.345          3.292          150.9         -7.333          56.04          43.07          133.8
    0.1582               -52.2          17.11          5.247          66.25          9.319          3.273          150.8         -7.337          56.15           43.1          133.7
    0.1648              -52.19           17.1          5.246          66.21          9.291          3.252          150.7         -7.342          56.27          43.13          133.5
    0.1714              -52.17           17.1          5.245          66.17          9.259          3.229          150.6         -7.347          56.41          43.17          133.4
